HIERARCHY
ROOT Hips
{
    OFFSET 0.000000 0.000000 0.000000
    CHANNELS 6 Xposition Yposition Zposition Zrotation Xrotation Yrotation
    JOINT Spine
    {
        OFFSET -0.000000 8.603107 0.000000
        CHANNELS 3 Zrotation Xrotation Yrotation
        JOINT Spine1
        {
            OFFSET -0.000000 23.906662 0.000000
            CHANNELS 3 Zrotation Xrotation Yrotation
            JOINT Neck
            {
                OFFSET -0.000000 23.808481 2.164407
                CHANNELS 3 Zrotation Xrotation Yrotation
                JOINT Head
                {
                    OFFSET -0.000000 14.688231 -2.098319
                    CHANNELS 3 Zrotation Xrotation Yrotation
                    End Site
                    {
                        OFFSET -0.000000 26.228985 0.000000
                    }
                }
            }
            JOINT LeftShoulder
            {
                OFFSET 4.178941 22.658146 -0.129871
                CHANNELS 3 Zrotation Xrotation Yrotation
                JOINT LeftArm
                {
                    OFFSET 9.497952 0.000000 0.000000
                    CHANNELS 3 Zrotation Xrotation Yrotation
                    JOINT LeftForeArm
                    {
                        OFFSET 38.855015 0.000000 0.000000
                        CHANNELS 3 Zrotation Xrotation Yrotation
                        JOINT LeftHand
                        {
                            OFFSET 24.940550 0.000000 0.000000
                            CHANNELS 3 Zrotation Xrotation Yrotation
                            End Site
                            {
                                OFFSET 15.737392 0.000000 0.000000
                            }
                        }
                    }
                }
            }
            JOINT RightShoulder
            {
                OFFSET -4.145384 22.658146 -0.129871
                CHANNELS 3 Zrotation Xrotation Yrotation
                JOINT RightArm
                {
                    OFFSET -9.497952 0.000000 0.000000
                    CHANNELS 3 Zrotation Xrotation Yrotation
                    JOINT RightForeArm
                    {
                        OFFSET -38.855015 0.000000 0.000000
                        CHANNELS 3 Zrotation Xrotation Yrotation
                        JOINT RightHand
                        {
                            OFFSET -24.940550 0.000000 0.000000
                            CHANNELS 3 Zrotation Xrotation Yrotation
                            End Site
                            {
                                OFFSET -15.737392 0.000000 0.000000
                            }
                        }
                    }
                }
            }
        }
    }
    JOINT LeftUpLeg
    {
        OFFSET 10.491594 0.000000 0.000000
        CHANNELS 3 Zrotation Xrotation Yrotation
        JOINT LeftLeg
        {
            OFFSET -0.000000 -46.080647 0.000000
            CHANNELS 3 Zrotation Xrotation Yrotation
            JOINT LeftFoot
            {
                OFFSET -0.000000 -50.184704 0.000000
                CHANNELS 3 Zrotation Xrotation Yrotation
                JOINT LeftToeBase
                {
                    OFFSET -0.000000 -6.819536 15.737392
                    CHANNELS 3 Zrotation Xrotation Yrotation
                    End Site
                    {
                        OFFSET -0.000000 0.000000 4.196638
                    }
                }
            }
        }
    }
    JOINT RightUpLeg
    {
        OFFSET -10.491594 0.000000 0.000000
        CHANNELS 3 Zrotation Xrotation Yrotation
        JOINT RightLeg
        {
            OFFSET -0.000000 -46.080647 0.000000
            CHANNELS 3 Zrotation Xrotation Yrotation
            JOINT RightFoot
            {
                OFFSET -0.000000 -50.184704 0.000000
                CHANNELS 3 Zrotation Xrotation Yrotation
                JOINT RightToeBase
                {
                    OFFSET -0.000000 -6.819536 15.737392
                    CHANNELS 3 Zrotation Xrotation Yrotation
                    End Site
                    {
                        OFFSET -0.000000 0.000000 4.196638
                    }
                }
            }
        }
    }
}
MOTION
Frames:    5
Frame Time:    0.008333
-149.165726    104.028511    34.153629    -0.270311    -1.540209    93.824745    0.664250    -6.252773    0.606558    1.714340    -1.942667    0.599310    3.038061    16.183178    0.980649    2.215668    -3.458286    1.400108    10.819809    0.780734    -12.083189    -14.914657    5.245811    10.140781    2.148707    -1.654824    1.688522    -1.712898    -1.667377    -1.279899    -14.670729    2.353068    -7.743019    12.860126    -2.924415    0.821081    -0.607180    -4.328581    -0.401870    -1.675470    -4.321105    -0.659140    1.560283    2.123422    1.714151    -3.113592    8.198165    -6.904965    4.742948    -7.926720    9.274865    0.000000    0.000000    0.000000    3.262832    7.242057    -2.609365    1.410091    -2.145696    -0.481309    -0.771736    -0.919335    -7.115594    0.000000    0.000000    0.000000    
-149.164551    104.026138    34.158646    -0.247947    -1.540927    93.789856    0.668472    -6.270407    0.604743    1.704526    -1.903396    0.596493    3.345644    16.217657    1.004456    1.649884    -3.478311    1.328464    10.848599    0.795194    -12.076510    -14.964712    5.367729    10.172112    2.263767    -1.638695    1.585087    -1.624386    -1.654696    -1.079836    -14.677414    2.332892    -7.742098    12.890491    -2.924083    0.878713    -0.591389    -4.313735    -0.388616    -1.629043    -4.303772    -0.843519    1.562957    2.133846    1.700543    -3.119585    8.226444    -6.878723    4.870057    -7.934951    9.302090    0.000000    0.000000    0.000000    3.287056    7.217753    -2.669739    1.362702    -2.069107    -0.534782    -0.752357    -0.947049    -6.962620    0.000000    0.000000    0.000000    
-149.161484    104.025314    34.165684    -0.219074    -1.545857    93.760529    0.677892    -6.279183    0.598817    1.689497    -1.872664    0.589247    3.480209    15.973024    1.053262    1.393228    -3.034724    1.321678    10.872704    0.801535    -12.072051    -14.890465    5.368705    10.111719    2.145794    -1.541875    1.721530    -1.508938    -1.558250    -1.204146    -14.658984    2.342245    -7.754659    12.907209    -2.984032    0.969858    -0.565908    -4.298184    -0.415875    -1.600200    -4.287908    -0.885743    1.565395    2.151577    1.709888    -3.108938    8.256886    -6.856696    4.781211    -7.952092    9.301262    0.000000    0.000000    0.000000    3.293951    7.236465    -2.687703    1.362224    -2.047804    -0.537878    -0.722978    -0.963065    -6.923485    0.000000    0.000000    0.000000    
-149.178406    104.034279    34.169559    -0.204897    -1.609982    93.637909    0.779436    -6.277920    0.643114    1.662538    -1.854342    0.627222    3.472460    15.994704    1.064344    1.372383    -3.067449    1.330758    10.912418    0.799202    -12.040896    -14.881798    5.354878    10.077896    2.116885    -1.536619    1.714400    -1.334945    -1.553859    -1.241297    -14.605491    2.418163    -7.735682    12.881347    -3.108005    1.031659    -0.532951    -4.340890    -0.425838    -1.626344    -4.330497    -0.873313    1.622441    2.146253    1.800942    -3.103012    8.303011    -6.894830    4.905537    -7.971530    9.373900    0.000000    0.000000    0.000000    3.330837    7.175908    -2.562569    1.383234    -1.951452    -0.565090    -0.672264    -0.937227    -6.905235    0.000000    0.000000    0.000000    
-149.177109    104.033066    34.172958    -0.177570    -1.602459    93.618095    0.781096    -6.306603    0.615197    1.674667    -1.772024    0.598114    3.253743    16.260363    1.085295    1.639030    -3.554159    1.413165    10.974884    0.605951    -11.863431    -14.951918    5.461442    9.944290    2.110489    -1.552405    1.754050    -1.170393    -1.571323    -1.311489    -14.736283    2.338687    -7.744876    13.021443    -3.066546    1.135715    -0.504271    -4.491147    -0.423434    -1.848042    -4.477334    -0.975402    1.613197    2.159461    1.767875    -3.145114    8.304510    -6.767759    4.952833    -7.949842    9.392023    0.000000    0.000000    0.000000    3.324627    7.202139    -2.611930    1.378845    -1.944245    -0.509320    -0.703666    -0.941079    -6.891265    0.000000    0.000000    0.000000    
